<svg width="139" height="273" viewBox="0 0 139 273" fill="none" xmlns="http://www.w3.org/2000/svg">
<path d="M97.2736 237.859C93.9076 234.493 90.2611 236.456 88.8586 237.859C85.4925 244.591 87.456 257.494 88.8586 263.104L87.7397 267.311L87.7404 271.519H109.896V267.311C109.896 265.909 108.213 263.104 101.481 263.104C93.0661 263.104 101.481 242.066 97.2736 237.859Z" fill="white" stroke="black" stroke-linecap="square"/>
<path d="M85.2427 229.57C80.4824 229.57 81.9809 211.337 83.3834 204.325C83.7161 202.566 96.0067 200.117 100.214 204.325C103.58 207.691 99.2685 222.557 97.866 229.57C91.7979 231.453 89.5542 229.57 85.2427 229.57Z" fill="white" stroke="black" stroke-linecap="square"/>
<path d="M96.5787 115.027C87.0225 118.29 92.6618 125.256 96.676 128.332C98.7777 130.196 103.402 130.481 120.689 129.024C134.518 127.859 128.563 121.889 124.549 118.814C108.646 119.798 106.135 111.764 96.5787 115.027Z" fill="white" stroke="black" stroke-linecap="square"/>
<path d="M128.931 114.095C124.658 111.998 120.093 118.595 118.345 122.156L119.331 125.042C120.69 129.024 126.406 132.742 134.369 130.023C142.333 127.303 134.272 116.718 128.931 114.095Z" fill="white" stroke="black" stroke-linecap="square"/>
<path d="M69.3713 183.918C72.7982 181.476 86.6688 163.37 65.1638 112.39C61.4635 103.618 40.386 104.465 31.5036 112.39C23.0885 125.012 27.7635 159.163 31.5036 183.918C32.1322 188.078 60.4478 190.275 69.3713 183.918Z" fill="white" stroke="black" stroke-linecap="square"/>
<path d="M86.7103 36.7529C78.6029 4.08368 54.4487 5.74279 40.8366 9.1209C27.2244 12.499 2.02686 27.4225 10.1343 60.0918C18.2418 92.761 47.493 94.1721 61.1052 90.794C71.2601 88.2739 80.4854 84.1244 88.7073 62.2683C80.4854 54.6717 88.7695 45.0504 86.7103 36.7529Z" fill="white" stroke="black" stroke-linecap="square"/>
<path d="M76.2779 39.5181C72.9118 32.7861 62.2528 32.5056 59.4478 35.3106C59.4478 38.1156 59.4478 50.4642 63.6553 56.3482C67.5711 61.8242 72.0703 61.9582 76.2779 60.5557C77.6804 56.3482 79.6439 46.2502 76.2779 39.5181Z" fill="black" stroke="black" stroke-linecap="square"/>
<path d="M96.5787 156.027C87.0225 159.29 92.6618 166.256 96.676 169.332C98.7777 171.196 103.402 171.481 120.689 170.024C134.518 168.859 128.563 162.889 124.549 159.814C108.646 160.798 106.135 152.764 96.5787 156.027Z" fill="white" stroke="black" stroke-linecap="square"/>
<path d="M128.931 155.095C124.658 152.998 120.093 159.595 118.345 163.156L119.331 166.042C120.69 170.024 126.406 173.742 134.369 171.023C142.333 168.303 134.272 157.718 128.931 155.095Z" fill="white" stroke="black" stroke-linecap="square"/>
<path d="M36.2736 237.859C32.9076 234.493 29.2611 236.456 27.8586 237.859C24.4925 244.591 26.456 257.494 27.8586 263.104L26.7397 267.311L26.7404 271.519H48.8962V267.311C48.8962 265.909 47.2132 263.104 40.4811 263.104C32.0661 263.104 40.4811 242.066 36.2736 237.859Z" fill="white" stroke="black" stroke-linecap="square"/>
<path d="M27.2427 229.57C22.4824 229.57 23.9809 211.337 25.3834 204.325C25.7161 202.566 38.0067 200.117 42.2143 204.325C45.5803 207.691 41.2685 222.557 39.866 229.57C33.7979 231.453 31.5542 229.57 27.2427 229.57Z" fill="white" stroke="black" stroke-linecap="square"/>
</svg>
