<svg width="500" height="1012" viewBox="0 0 500 1012" fill="none" xmlns="http://www.w3.org/2000/svg">
<path d="M355.527 914.032C355.527 895.822 317.086 897.438 317.857 914.033C319.369 946.589 317.857 936.752 317.857 951.968C317.857 967.184 355.383 967.184 355.527 955.61C355.67 944.037 355.527 929.679 355.527 914.032Z" fill="#666E87" stroke="black" stroke-width="5"/>
<path d="M370.558 984.707C367.854 980.661 323.475 975.226 320.24 982.358C316.568 990.454 316.907 1005.12 322.739 1007.56C328.572 1009.99 363.995 1009.46 370.558 1007.56C377.12 1005.65 373.261 988.754 370.558 984.707Z" fill="#666E87" stroke="black" stroke-width="5"/>
<path d="M367.251 779.735C352.054 767.915 343.852 760.946 323.962 764.793C298.493 769.719 313.622 852.222 318.192 871.581C323.059 892.194 343.792 890.633 355.543 879.9C373.289 845.469 381.175 790.564 367.251 779.735Z" fill="#666E87" stroke="black" stroke-width="5"/>
<path d="M444.702 609.615C442.942 578.214 481.554 578.844 482.387 607.504C484.021 663.727 484.583 646.68 486.054 672.918C487.524 699.156 449.982 701.26 448.72 681.311C447.458 661.362 446.214 636.596 444.702 609.615Z" fill="#666E87" stroke="black" stroke-opacity="0.5" stroke-width="5"/>
<path d="M403.303 470.141C397.894 451.664 421.783 446.498 442.026 445.693C467.946 444.662 472.092 528.438 472.072 548.329C472.05 569.509 451.509 572.732 437.615 564.971C427.245 544.515 410.617 495.127 403.303 470.141Z" fill="#666E87" stroke="black" stroke-opacity="0.5" stroke-width="5"/>
<path d="M450.598 750.185C450.598 735.097 463.172 731.325 469.458 731.325C475.745 731.325 488.318 735.095 488.318 750.173C488.318 765.25 475.744 769.028 469.458 769.032C469.458 769.032 450.598 769.045 450.598 750.185Z" fill="#666E87" stroke="black" stroke-opacity="0.5" stroke-width="5"/>
<path d="M334.624 703.339C372.364 678.181 391.246 564.936 340.919 495.738C326.527 475.948 340.919 451.702 259.139 457.992C177.356 457.994 177.289 475.849 177.356 495.742C177.619 572.816 158.562 709.17 183.647 721.157C278.007 766.247 296.884 728.497 334.624 703.339Z" fill="#666E87" stroke="black" stroke-width="5"/>
<path d="M347.626 537.188C330.917 497.053 252.559 502.505 245.392 540.383C237.355 582.855 239.018 637.715 248.586 654.863C275.099 702.38 335.564 676.349 350.821 652.209C366.078 628.069 372.369 596.618 347.626 537.188Z" fill="#F3CCB6"/>
<path d="M50.1236 666.283C50.1236 634.833 11.6067 637.622 12.3789 666.284C13.8936 722.51 12.3789 705.521 12.3789 731.801C12.3789 758.08 49.9801 758.08 50.1236 738.091C50.2672 718.103 50.1236 693.306 50.1236 666.283Z" fill="#666E87" stroke="black" stroke-opacity="0.5" stroke-width="5"/>
<path d="M18.972 809.55C18.972 794.462 31.5452 790.69 37.8319 790.69C44.1183 790.69 56.6912 794.459 56.6912 809.537C56.6912 824.615 44.1179 828.392 37.8313 828.397C37.8313 828.397 18.972 828.409 18.972 809.55Z" fill="#666E87" stroke="black" stroke-opacity="0.5" stroke-width="5"/>
<path d="M70.0356 490.401C72.4857 471.305 48.082 469.942 27.963 472.316C2.20055 475.355 11.2194 558.747 14.3533 578.39C17.6901 599.305 38.4823 599.273 50.9906 589.433C58.0303 567.606 66.7225 516.224 70.0356 490.401Z" fill="#666E87" stroke="black" stroke-opacity="0.5" stroke-width="5"/>
<path d="M244.837 920.216C244.837 902.006 206.397 903.621 207.167 920.217C208.679 952.772 207.167 942.935 207.167 958.151C207.167 973.367 244.694 973.367 244.837 961.794C244.98 950.22 244.837 935.863 244.837 920.216Z" fill="#666E87" stroke="black" stroke-width="5"/>
<path d="M253.066 984.707C250.362 980.661 205.983 975.226 202.748 982.358C199.077 990.454 199.415 1005.12 205.248 1007.56C211.081 1009.99 246.504 1009.46 253.066 1007.56C259.628 1005.65 255.77 988.754 253.066 984.707Z" fill="#666E87" stroke="black" stroke-width="5"/>
<path d="M253.513 785.24C237.92 773.947 229.485 767.263 209.738 771.787C184.452 777.581 202.393 859.518 207.623 878.71C213.191 899.145 233.859 896.875 245.236 885.747C261.794 850.73 267.799 795.587 253.513 785.24Z" fill="#666E87" stroke="black" stroke-width="5"/>
<path d="M405.64 5.51823C395.872 -12.4043 362.057 43.6977 360.293 87.6513C358.529 131.605 362.193 125.51 363.17 148.038C364.147 170.565 380.859 163.925 402.3 162.069C504.122 229.491 437.821 64.5675 405.64 5.51823Z" fill="#666E87"/>
<path d="M126.149 314.122C126.149 213.469 182.766 169.434 270.837 169.434C340.036 169.434 402.944 207.178 402.944 307.831C402.944 408.484 312.776 439.938 270.837 439.938C228.898 439.938 126.149 414.774 126.149 314.122Z" fill="#666E87" stroke="black" stroke-width="5"/>
<path d="M277.572 439.936C352.617 433.646 384.071 370.738 384.071 345.574C384.071 320.41 374.945 298.181 333.745 295.249C312.885 293.765 285.152 292.932 264.546 295.249C228.37 299.317 200.856 304.629 189.057 320.412C157.262 362.941 202.528 446.226 277.572 439.936Z" fill="white" stroke="black" stroke-width="5"/>
<path d="M269.071 280.598C268.787 275.376 233.007 275.859 233.291 281.079L234.426 301.958C235.308 318.184 271.058 317.129 270.176 300.905L269.071 280.598Z" fill="url(#paint0_angular_47_108)" stroke="black" stroke-width="5"/>
<path d="M264.317 288.839C264.202 282.726 244.051 282.737 244.053 289.111C244.053 289.75 243.94 293.062 243.936 297.667C243.93 305.131 264.199 305.131 264.199 297.664L264.317 288.839Z" fill="#274454"/>
<path d="M220.511 276.512L270.837 276.377" stroke="black" stroke-width="5" stroke-linecap="round"/>
<path d="M369.724 280.592C369.44 275.37 333.659 275.853 333.943 281.073L335.078 301.952C335.961 318.179 371.71 317.123 370.828 300.899L369.724 280.592Z" fill="url(#paint1_angular_47_108)" stroke="black" stroke-width="5"/>
<path d="M364.97 288.833C364.855 282.72 344.704 282.731 344.705 289.105C344.705 289.745 344.592 293.057 344.588 297.661C344.582 305.125 364.852 305.125 364.852 297.659L364.97 288.833Z" fill="#274454"/>
<path d="M321.163 276.512L371.49 276.377" stroke="black" stroke-width="5" stroke-linecap="round"/>
<path d="M332.609 319.261C327.857 311.251 301.223 313.673 296.968 319.264C292.713 324.855 303.191 339.285 314.789 339.285C326.388 339.285 337.361 327.271 332.609 319.261Z" fill="black"/>
<path d="M308.582 339.285V364.448" stroke="black" stroke-width="5"/>
<path d="M283.419 377.03C306.294 360.254 315.445 360.254 333.745 377.03" stroke="black" stroke-width="5"/>
<path d="M26.2871 63.3477C30.234 52.8092 68.0733 82.8879 91.2157 120.297C114.358 157.706 114.833 164.557 116.666 168.161C118.5 171.766 98.5045 171.819 78.9204 180.743C9.72173 243.651 -1.13093 136.554 26.2871 63.3477Z" fill="#666E87"/>
<path d="M36.6116 79.9365C36.6116 79.9365 49.1939 98.8089 68.0694 123.972C86.943 149.133 86.9382 149.135 74.3607 155.424L74.3571 155.426C61.7759 161.717 53.523 172.917 49.1931 180.589C22.2526 228.327 36.6116 79.9365 36.6116 79.9365Z" fill="#FFC3A2" stroke="black" stroke-width="5"/>
<path d="M42.903 111.391L68.0662 155.426L61.7754 161.717L42.903 111.391Z" fill="#666E87"/>
<defs>
<radialGradient id="paint0_angular_47_108" cx="0" cy="0" r="1" gradientUnits="userSpaceOnUse" gradientTransform="translate(251.965 295.256) rotate(-179.952) scale(64.4651 34.0901)">
<stop stop-color="#024F7B"/>
<stop offset="0.33" stop-color="#136781"/>
<stop offset="1" stop-color="#EDE6DC" stop-opacity="0.81"/>
</radialGradient>
<radialGradient id="paint1_angular_47_108" cx="0" cy="0" r="1" gradientUnits="userSpaceOnUse" gradientTransform="translate(352.617 295.25) rotate(-179.952) scale(64.4651 34.0901)">
<stop stop-color="#024F7B"/>
<stop offset="0.33" stop-color="#136781"/>
<stop offset="1" stop-color="#EDE6DC" stop-opacity="0.81"/>
</radialGradient>
</defs>
</svg>
