<svg width="501" height="407" viewBox="0 0 501 407" fill="none" xmlns="http://www.w3.org/2000/svg">
<path d="M71.4889 201.935C71.4889 238.773 122.141 250.292 140.56 250.292C158.979 250.292 149.769 250.292 184.305 245.68C205.026 257.192 244.166 252.587 278.702 268.703C315.231 269.167 343.667 246.55 354.68 231.866C361.587 222.656 363.691 196.545 370.797 181.213C382.308 162.796 368.186 178.286 396.123 144.384C424.059 110.482 354.68 38.9948 333.959 98.3285C313.237 116.747 314.682 127.963 281.004 142.089C260.283 153.593 161.281 148.986 147.467 153.593C122.141 158.19 71.4889 165.097 71.4889 201.935Z" fill="#100F0F"/>
<path d="M448.802 150.22C458.78 154.42 466.717 147.371 465.061 144.866C464.308 143.727 454.659 142.746 454.659 142.746C454.659 142.746 445.61 137.164 443.448 133.961C430.468 114.731 413.108 120.468 422.14 132.205C422.14 132.205 437.172 139.763 448.802 150.22Z" fill="#C20000" stroke="black" stroke-width="0.01"/>
<path d="M464.678 149.477L471.177 122.967C471.177 115.898 458.183 114.131 458.179 122.967L464.678 149.477Z" fill="white"/>
<path d="M458.179 122.967V122.967ZM458.179 122.967C458.183 114.131 471.177 115.898 471.177 122.967L464.678 149.477L458.179 122.967Z" stroke="black" stroke-width="0.5"/>
<path d="M474.426 139.729L477.676 126.474C477.676 122.939 471.179 122.056 471.177 126.474L474.426 139.729Z" fill="white"/>
<path d="M471.177 126.474V126.474ZM471.177 126.474C471.179 122.056 477.676 122.939 477.676 126.474L474.426 139.729L471.177 126.474Z" stroke="black" stroke-width="0.5"/>
<path d="M477.676 139.729L480.925 126.474C480.925 122.939 474.428 122.056 474.426 126.474L477.676 139.729Z" fill="white"/>
<path d="M474.426 126.474V126.474ZM474.426 126.474C474.428 122.056 480.925 122.939 480.925 126.474L477.676 139.729L474.426 126.474Z" stroke="black" stroke-width="0.5"/>
<path d="M468.612 147.035L462.172 159.067C461.294 162.491 467.368 164.961 468.467 160.681L468.612 147.035Z" fill="white"/>
<path d="M468.467 160.681V160.681ZM468.467 160.681C467.368 164.961 461.294 162.491 462.172 159.067L468.612 147.035L468.467 160.681Z" stroke="black" stroke-width="0.5"/>
<path d="M471.861 147.035L465.421 159.067C464.543 162.491 470.617 164.961 471.717 160.681L471.861 147.035Z" fill="white"/>
<path d="M471.717 160.681V160.681ZM471.717 160.681C470.617 164.961 464.543 162.491 465.421 159.067L471.861 147.035L471.717 160.681Z" stroke="black" stroke-width="0.5"/>
<path d="M480.925 139.729L484.175 126.474C484.175 122.939 477.678 122.056 477.676 126.474L480.925 139.729Z" fill="white"/>
<path d="M477.676 126.474V126.474ZM477.676 126.474C477.678 122.056 484.175 122.939 484.175 126.474L480.925 139.729L477.676 126.474Z" stroke="black" stroke-width="0.5"/>
<path d="M447.861 166.867C464.459 173.854 477.663 162.127 474.907 157.961C473.654 156.066 457.603 154.435 457.603 154.435C457.603 154.435 442.551 145.149 438.955 139.821C417.363 107.833 388.486 117.377 403.511 136.9C403.511 136.9 428.515 149.472 447.861 166.867Z" fill="black" stroke="black" stroke-width="0.01"/>
<path d="M450.338 71.2949C443.274 50.3678 419.186 38.9948 402.938 34.1205C388.701 34.1205 356.543 33.0115 344.385 71.2949C332.227 109.578 363.944 141.354 399.688 134.855C407.816 125.506 432.261 121.362 443.274 127.805C460.934 138.401 496.252 138.401 499.784 110.146C503.316 81.8906 462.469 107.234 450.338 71.2949Z" fill="#100F0F" stroke="black" stroke-width="0.2"/>
<path d="M141.606 198.815C89.5531 150.168 72.6423 199.484 70.6934 230.223L61.2088 252.364L42.8151 271.17C35.4164 274.972 19.6499 282.931 15.7738 284.348C10.2866 292.135 5.7508 308.04 31.5048 309.358C34.3819 300.397 55.8377 292.775 66.206 290.085C107.523 273.887 103.2 271.073 118.518 258.883C153.659 227.586 148.552 205.797 141.606 198.815Z" fill="#100F0F" stroke="black" stroke-width="0.2"/>
<path d="M25.1554 338.823C22.9177 317.67 29.534 320.744 33.1303 309.543C36.2602 295.813 23.9471 287.149 17.3993 284.533C8.22981 283.49 8.12466 291.218 9.21827 295.213C7.72228 315.167 5.43861 357.014 8.27191 364.766C11.1052 372.519 18.6218 369.04 22.026 366.331C23.7966 371.177 27.5277 366.957 31.1957 367.374C34.8637 367.791 37.4826 366.541 38.3336 365.864C40.1675 366.073 39.4455 362.895 38.8552 361.279C37.5877 358.813 34.1358 353.776 30.468 353.359C26.8002 352.942 24.8765 348.079 24.373 345.7L25.1554 338.823Z" fill="#100F0F"/>
<path d="M38.3336 365.864C40.1675 366.073 39.4455 362.895 38.8552 361.279C37.5877 358.813 34.1358 353.776 30.468 353.359C26.8002 352.942 24.8765 348.079 24.373 345.7L25.1554 338.823C22.9177 317.67 29.534 320.744 33.1303 309.543C36.2602 295.813 23.9471 287.149 17.3993 284.533C8.22981 283.49 8.12466 291.218 9.21827 295.213C7.72228 315.167 5.43861 357.014 8.27191 364.766C11.1052 372.519 18.6218 369.04 22.026 366.331C23.7966 371.177 27.5277 366.957 31.1957 367.374C34.8637 367.791 37.4826 366.541 38.3336 365.864ZM38.3336 365.864C36.4997 365.656 34.6868 363.901 34.0096 363.05" stroke="black" stroke-width="0.2"/>
<path d="M164.352 211.813C112.3 163.166 95.3887 212.482 93.4399 243.221L83.9552 265.362L65.5615 284.168C58.1628 287.97 42.3964 295.929 38.5203 297.346C33.0331 305.134 28.4973 321.039 54.2513 322.356C57.1283 313.395 78.5842 305.773 88.9524 303.083C130.27 286.885 125.946 284.071 141.265 271.881C176.405 240.584 171.298 218.795 164.352 211.813Z" fill="#100F0F" stroke="black" stroke-width="0.2"/>
<path d="M47.9019 351.821C45.6642 330.668 52.2805 333.742 55.8768 322.541C59.0067 308.811 46.6936 300.147 40.1458 297.531C30.9763 296.488 30.8711 304.216 31.9647 308.211C30.4687 328.165 28.1851 370.012 31.0184 377.764C33.8517 385.517 41.3683 382.038 44.7725 379.329C46.5431 384.175 50.2742 379.955 53.9422 380.372C57.6101 380.79 60.2291 379.539 61.0801 378.862C62.914 379.071 62.1919 375.893 61.6016 374.277C60.3342 371.811 56.8823 366.774 53.2145 366.357C49.5467 365.94 47.6229 361.077 47.1195 358.698L47.9019 351.821Z" fill="#100F0F"/>
<path d="M61.0801 378.862C62.914 379.071 62.1919 375.893 61.6016 374.277C60.3342 371.811 56.8823 366.774 53.2145 366.357C49.5467 365.94 47.6229 361.077 47.1195 358.698L47.9019 351.821C45.6642 330.668 52.2805 333.742 55.8768 322.541C59.0067 308.811 46.6936 300.147 40.1458 297.531C30.9763 296.488 30.8711 304.216 31.9647 308.211C30.4687 328.165 28.1851 370.012 31.0184 377.764C33.8517 385.517 41.3683 382.038 44.7725 379.329C46.5431 384.175 50.2742 379.955 53.9422 380.372C57.6101 380.79 60.2291 379.539 61.0801 378.862ZM61.0801 378.862C59.2462 378.654 57.4333 376.899 56.7561 376.048" stroke="black" stroke-width="0.2"/>
<path d="M316.411 188.568C300.399 186.789 283.052 210.067 276.38 221.928L269.708 259.734C270.449 263.441 271.487 271.744 269.708 275.302C273.166 285.957 290.063 291.157 299.162 280.902C303.425 268.287 309.73 255.296 318.635 246.391C340.875 224.151 336.427 190.792 316.411 188.568Z" fill="black" stroke="black" stroke-width="0.2"/>
<path d="M291.739 313.111C291.739 321.266 290.405 339.354 285.067 346.471C284.326 353.143 283.733 366.487 287.291 366.487C288.774 367.969 292.184 370.935 293.963 370.935C296.187 370.935 300.635 368.711 300.635 373.159C304.342 375.383 310.865 380.275 307.307 382.054C306.566 383.537 304.194 386.058 300.635 384.278C300.239 384.193 298.601 383.356 297.523 382.709C298.132 383.356 298.793 384.183 298.793 384.183C300.153 385.275 295.475 387.324 287.291 386.502C284.162 386.188 285.067 382.054 280.619 384.278C273.947 388.726 271.723 382.054 273.947 377.607C273.947 371.676 273.058 359.37 269.499 357.591C265.052 355.367 260.604 353.143 265.052 346.471C268.61 341.133 269.499 301.25 269.499 281.976C268.758 281.234 267.721 278.862 269.5 275.304C276.068 271.153 291.155 266.463 298.954 280.904C294.7 293.492 292.48 305.706 291.739 313.111Z" fill="black"/>
<path d="M307.307 382.054C310.865 380.275 304.342 375.383 300.635 373.159C300.635 368.711 296.187 370.935 293.963 370.935C292.184 370.935 288.774 367.969 287.291 366.487C283.733 366.487 284.326 353.143 285.067 346.471C290.405 339.354 291.739 321.266 291.739 313.111C292.48 305.706 294.7 293.492 298.954 280.904C291.155 266.463 276.068 271.153 269.5 275.304C267.721 278.862 268.758 281.234 269.499 281.976C269.499 301.25 268.61 341.133 265.052 346.471C260.604 353.143 265.052 355.367 269.499 357.591C273.058 359.37 273.947 371.676 273.947 377.607C271.723 382.054 273.947 388.726 280.619 384.278C285.067 382.054 284.162 386.188 287.291 386.502C295.475 387.324 300.153 385.275 298.793 384.183C298.793 384.183 296.893 381.807 296.569 381.959C296.245 382.111 300.006 384.143 300.635 384.278C304.194 386.058 306.566 383.537 307.307 382.054ZM307.307 382.054C306.566 381.313 304.638 379.386 302.859 377.607" stroke="black" stroke-width="0.2"/>
<path d="M329.409 208.065C313.397 206.286 296.05 229.564 289.378 241.425L282.706 279.232C283.448 282.938 284.485 291.241 282.706 294.799C286.164 305.454 303.061 310.654 312.16 300.4C316.423 287.784 322.728 274.793 331.633 265.888C353.873 243.648 349.425 210.289 329.409 208.065Z" fill="black" stroke="black" stroke-width="0.2"/>
<path d="M304.737 332.608C304.737 340.763 303.403 358.851 298.065 365.968C297.324 372.64 296.731 385.984 300.289 385.984C301.772 387.466 305.182 390.432 306.961 390.432C309.185 390.432 313.633 388.208 313.633 392.656C317.34 394.88 323.863 399.772 320.305 401.552C319.564 403.034 317.192 405.555 313.633 403.776C313.237 403.69 311.599 402.853 310.521 402.207C311.13 402.853 311.791 403.68 311.791 403.68C313.151 404.772 308.473 406.822 300.289 406C297.16 405.685 298.065 401.552 293.617 403.776C286.945 408.223 284.721 401.552 286.945 397.104C286.945 391.173 286.056 378.867 282.498 377.088C278.05 374.864 273.602 372.64 278.05 365.968C281.608 360.63 282.498 320.747 282.498 301.473C281.756 300.731 280.719 298.359 282.498 294.801C289.066 290.65 304.153 285.96 311.952 300.401C307.698 312.989 305.478 325.203 304.737 332.608Z" fill="black"/>
<path d="M320.305 401.552C323.863 399.772 317.34 394.88 313.633 392.656C313.633 388.208 309.185 390.432 306.961 390.432C305.182 390.432 301.772 387.466 300.289 385.984C296.731 385.984 297.324 372.64 298.065 365.968C303.403 358.851 304.737 340.763 304.737 332.608C305.478 325.203 307.698 312.989 311.952 300.401C304.153 285.96 289.066 290.65 282.498 294.801C280.719 298.359 281.756 300.731 282.498 301.473C282.498 320.747 281.608 360.63 278.05 365.968C273.602 372.64 278.05 374.864 282.498 377.088C286.056 378.867 286.945 391.173 286.945 397.104C284.721 401.552 286.945 408.223 293.617 403.776C298.065 401.552 297.16 405.685 300.289 406C308.473 406.822 313.151 404.772 311.791 403.68C311.791 403.68 309.891 401.304 309.567 401.456C309.243 401.608 313.004 403.64 313.633 403.776C317.192 405.555 319.564 403.034 320.305 401.552ZM320.305 401.552C319.564 400.81 317.636 398.883 315.857 397.104" stroke="black" stroke-width="0.2"/>
<path d="M71.3783 120.231C63.9734 122.26 59.8446 142.859 58.4922 146.227C57.1397 149.596 55.2166 180.605 64.9891 186.846C80.1948 196.558 91.0111 191.864 81.2373 181.972C75.6857 176.353 62.1629 169.69 68.2386 147.852C67.8422 141.069 73.1305 121.524 71.3783 120.231Z" fill="black" stroke="black" stroke-width="0.01"/>
<path d="M394.363 52.992C402.395 63.5373 379.565 75.1531 372.367 74.1585C353.218 87.5407 344.026 45.0468 342.843 22.4007C347.561 24.1219 381.361 35.9192 394.363 52.992Z" fill="black"/>
<path d="M423.609 43.2429C431.64 53.7883 408.811 65.404 401.613 64.4095C382.463 77.7917 373.271 35.2977 372.089 12.6517C376.807 14.3729 410.606 26.1702 423.609 43.2429Z" fill="black"/>
</svg>
