<svg width="200" height="114" viewBox="0 0 200 114" fill="none" xmlns="http://www.w3.org/2000/svg">
<path d="M189.844 43.2118C189.844 62.0277 177.759 75.8904 155.808 75.8904C133.856 75.8904 110.349 62.0277 110.349 43.2118C121.707 9.14014 64.9258 -13.5693 150.097 9.14268C161.486 24.7867 184.199 36.1431 189.844 43.2118Z" fill="#5D4533"/>
<path d="M199.915 41.0454C199.868 44.7723 192.417 51.1668 187.423 51.1039C182.429 51.041 181.783 44.5445 181.83 40.8176C181.877 37.0906 185.964 34.1203 190.958 34.1832C195.952 34.2462 199.962 37.3184 199.915 41.0454Z" fill="#1F0A0A"/>
<path d="M45.4252 69.7492L59.4463 69.7492L53.8863 86.6371C45.1625 117.369 23.4022 125.645 23.7608 69.7492C23.7713 68.1072 33.157 69.7492 33.157 69.7492L45.4252 69.7492Z" fill="#5E4533"/>
<ellipse cx="63.9113" cy="85.18" rx="11.9764" ry="26.1574" transform="rotate(-15.3832 63.9113 85.18)" fill="#5D4533"/>
<ellipse cx="115.991" cy="85.0847" rx="13.7743" ry="28.2964" transform="rotate(-0.0193349 115.991 85.0847)" fill="#5D4533"/>
<ellipse cx="17.8686" cy="66.0871" rx="17.0346" ry="5.6782" transform="rotate(12.777 17.8686 66.0871)" fill="#5D4533"/>
<path d="M158.989 36.9084C158.989 34.6372 160.882 34.0693 161.828 34.0693C162.775 34.0693 164.667 34.6372 164.667 36.9084C164.667 39.1797 162.775 39.7475 161.828 39.7475C160.882 39.7475 158.989 39.1797 158.989 36.9084Z" fill="black" stroke="black" stroke-width="0.1"/>
<path d="M104.634 67.9275C104.086 77.8425 107.97 84.5502 119.242 85.1734C124.418 85.4596 129.717 109.832 143.465 106.09C147.883 103.034 146.995 86.0274 141.316 68.9865C138.688 61.0982 137.306 51.7262 126.034 51.103C114.763 50.4798 105.182 58.0124 104.634 67.9275Z" fill="#5D4533"/>
<path d="M134.329 41.1063C143.376 58.1571 157.347 86.7874 74.5916 77.5757C59.4561 75.879 17.0342 90.8514 22.7088 62.4579C17.1286 63.5253 37.3112 39.9647 68.1343 34.0686C98.9574 28.1725 133.053 34.4353 134.329 41.1063Z" fill="#5D4533"/>
</svg>
